<?xml version="1.0" encoding="UTF-8" standalone="no"?>
<!-- Uploaded to: SVG Repo, www.svgrepo.com, Generator: SVG Repo Mixer Tools -->

<svg
   fill="#000000"
   width="678.84741"
   height="647.96442"
   viewBox="0 -0.69 26.811079 25.591355"
   version="1.1"
   id="svg6"
   sodipodi:docname="icon-fav.svg"
   inkscape:version="1.2.2 (732a01da63, 2022-12-09)"
   xmlns:inkscape="http://www.inkscape.org/namespaces/inkscape"
   xmlns:sodipodi="http://sodipodi.sourceforge.net/DTD/sodipodi-0.dtd"
   xmlns="http://www.w3.org/2000/svg"
   xmlns:svg="http://www.w3.org/2000/svg">
  <defs
     id="defs10" />
  <sodipodi:namedview
     id="namedview8"
     pagecolor="#ffffff"
     bordercolor="#000000"
     borderopacity="0.25"
     inkscape:showpageshadow="2"
     inkscape:pageopacity="0.0"
     inkscape:pagecheckerboard="0"
     inkscape:deskcolor="#d1d1d1"
     showgrid="false"
     inkscape:zoom="0.78"
     inkscape:cx="310.89744"
     inkscape:cy="341.02564"
     inkscape:window-width="1600"
     inkscape:window-height="832"
     inkscape:window-x="-8"
     inkscape:window-y="-8"
     inkscape:window-maximized="1"
     inkscape:current-layer="svg6" />
  <path
     sodipodi:type="star"
     style="fill:#eedf18;fill-opacity:1;stroke:#7a6a00;stroke-width:14.99999802;stroke-dasharray:none;stroke-opacity:1"
     id="path902"
     inkscape:flatsided="false"
     sodipodi:sides="5"
     sodipodi:cx="232.05128"
     sodipodi:cy="194.8718"
     sodipodi:r1="354.18973"
     sodipodi:r2="166.46918"
     sodipodi:arg1="2.0943951"
     sodipodi:arg2="2.7227136"
     inkscape:rounded="0.03"
     inkscape:randomized="0"
     d="M 54.956422,501.6091 C 48.712365,498.00409 82.906704,269.16759 79.974126,262.58092 77.041549,255.99424 -115.89759,128.28407 -114.39855,121.23161 c 1.49905,-7.05246 229.70212,-45.246076 235.06021,-50.070518 5.35809,-4.824442 67.1962,-227.785082 74.36672,-228.538732 7.17051,-0.75366 114.01343,204.477889 120.25749,208.082896 6.24406,3.605008 237.40125,-6.482079 240.33383,0.104598 2.93258,6.586677 -159.23794,171.620366 -160.73699,178.672826 -1.49904,7.05246 79.52585,223.77894 74.16776,228.60338 -5.35808,4.82444 -212.42789,-98.41068 -219.59841,-97.65702 -7.17052,0.75365 -188.251582,144.78507 -194.495638,141.18006 z"
     transform="matrix(0.03923585,0.00451703,-0.00451703,0.03923585,5.1384085,4.70264)"
     inkscape:transform-center-x="-0.042800789"
     inkscape:transform-center-y="-1.2950366" />
</svg>
