<?xml version="1.0" encoding="UTF-8" standalone="no"?>
<!-- Uploaded to: SVG Repo, www.svgrepo.com, Generator: SVG Repo Mixer Tools -->

<svg
   fill="#000000"
   width="651.2832"
   height="651.28125"
   viewBox="0 -0.69 25.722431 25.722353"
   version="1.1"
   id="svg6"
   sodipodi:docname="icon-fav2.svg"
   inkscape:version="1.2.2 (732a01da63, 2022-12-09)"
   xmlns:inkscape="http://www.inkscape.org/namespaces/inkscape"
   xmlns:sodipodi="http://sodipodi.sourceforge.net/DTD/sodipodi-0.dtd"
   xmlns="http://www.w3.org/2000/svg"
   xmlns:svg="http://www.w3.org/2000/svg">
  <defs
     id="defs10" />
  <sodipodi:namedview
     id="namedview8"
     pagecolor="#ffffff"
     bordercolor="#000000"
     borderopacity="0.25"
     inkscape:showpageshadow="2"
     inkscape:pageopacity="0.0"
     inkscape:pagecheckerboard="0"
     inkscape:deskcolor="#d1d1d1"
     showgrid="false"
     inkscape:zoom="0.78"
     inkscape:cx="359.61538"
     inkscape:cy="352.5641"
     inkscape:window-width="1600"
     inkscape:window-height="832"
     inkscape:window-x="-8"
     inkscape:window-y="-8"
     inkscape:window-maximized="1"
     inkscape:current-layer="svg6" />
  <path
     id="path893"
     style="fill:#b59df7;fill-opacity:1;stroke:none;stroke-width:0.592425"
     d="M 12.861177,-0.69 A 12.861192,12.861192 0 0 0 0,12.171176 12.861192,12.861192 0 0 0 12.861177,25.032353 12.861192,12.861192 0 0 0 25.72243,12.171176 12.861192,12.861192 0 0 0 12.861177,-0.69 Z m 0.07151,3.3814508 c 0.212627,0.00211 2.65072,6.3754908 2.821501,6.5021731 0.170782,0.1266822 6.977361,0.6108649 7.041064,0.8137361 0.0637,0.202871 -5.244293,4.491084 -5.312,4.692653 -0.06771,0.20157 1.575174,6.824605 1.401918,6.947881 -0.173256,0.123276 -5.891819,-3.599808 -6.104446,-3.601913 -0.212627,-0.0021 -6.003861,3.607024 -6.174642,3.480342 C 6.4353,21.399641 8.20901,14.810395 8.145307,14.607524 8.081601,14.404653 2.859551,10.012226 2.927258,9.8106561 2.994966,9.6090862 9.8097985,9.25974 9.9830555,9.1364641 10.156312,9.0131882 12.720057,2.6893456 12.932684,2.6914508 Z" />
</svg>
